<?xml version="1.0"?>
<svg xmlns="http://www.w3.org/2000/svg" xmlns:xlink="http://www.w3.org/1999/xlink" xmlns:svgjs="http://svgjs.com/svgjs" version="1.1" width="512" height="512" x="0" y="0" viewBox="0 0 512.00005 512" style="enable-background:new 0 0 512 512" xml:space="preserve" class=""><g><path xmlns="http://www.w3.org/2000/svg" d="m4.488281 507.503906c-5.984375-5.980468-5.984375-15.683594 0-21.667968l114.515625-114.515626c5.984375-5.984374 15.6875-5.984374 21.671875 0 5.984375 5.984376 5.984375 15.683594 0 21.667969l-114.515625 114.515625c-5.984375 5.984375-15.6875 5.984375-21.671875 0zm0 0" fill="#51adff" data-original="#dbeeff" style="" class=""/><path xmlns="http://www.w3.org/2000/svg" d="m508.546875 206.664062 3.449219-191.066406c.078125-4.15625-1.542969-8.167968-4.484375-11.109375-2.941407-2.941406-6.949219-4.5585935-11.109375-4.48437475l-191.074219 3.44140575c-6.144531.109376-11.632813 3.882813-13.933594 9.585938-2.300781 5.699219-.972656 12.222656 3.375 16.570312l41.25 41.25-220.6875 220.683594c-2.871093 2.875-4.488281 6.773438-4.484375 10.835938 0 4.066406 1.613282 7.960937 4.484375 10.835937l83.457031 83.453125c5.984376 5.984375 15.683594 5.984375 21.667969 0l220.6875-220.6875 41.25 41.25c4.347657 4.347656 10.871094 5.675782 16.570313 3.375 5.699218-2.300781 9.472656-7.785156 9.582031-13.933594zm0 0" fill="#1976d2" data-original="#19cffc" style="" class=""/><path xmlns="http://www.w3.org/2000/svg" d="m10.066406 418.476562c-5.984375-5.984374-5.984375-15.6875 0-21.671874l67.210938-67.210938c5.984375-5.984375 15.683594-5.984375 21.667968 0 5.984376 5.984375 5.984376 15.683594 0 21.667969l-67.210937 67.214843c-5.984375 5.980469-15.6875 5.980469-21.667969 0zm0 0" fill="#51adff" data-original="#dbeeff" style="" class=""/><path xmlns="http://www.w3.org/2000/svg" d="m93.519531 501.929688c-5.984375-5.984376-5.984375-15.6875 0-21.671876l67.214844-67.210937c5.984375-5.984375 15.683594-5.984375 21.667969 0s5.984375 15.683594 0 21.667969l-67.214844 67.214844c-5.984375 5.984374-15.683594 5.984374-21.667969 0zm0 0" fill="#51adff" data-original="#dbeeff" style="" class=""/><path xmlns="http://www.w3.org/2000/svg" d="m511.996094 15.597656c.078125-4.15625-1.542969-8.167968-4.480469-11.109375l-350.449219 350.449219 41.722656 41.71875c5.984376 5.984375 15.6875 5.984375 21.671876 0l220.683593-220.683594 41.25 41.25c4.347657 4.347656 10.871094 5.675782 16.570313 3.375 5.699218-2.300781 9.472656-7.785156 9.582031-13.933594zm0 0" fill="#04a4ff" data-original="#4ab8f7" style="" class=""/><g xmlns="http://www.w3.org/2000/svg" fill="#bfe1ff"><path d="m140.679688 371.324219-136.1875 136.1875c5.984374 5.976562 15.683593 5.976562 21.664062-.007813l114.519531-114.515625c5.980469-5.984375 5.984375-15.679687.003907-21.664062zm0 0" fill="#80c4ff" data-original="#bfe1ff" style="" class=""/><path d="m115.1875 501.929688 67.214844-67.214844c5.984375-5.984375 5.984375-15.683594 0-21.667969l-88.882813 88.882813c5.984375 5.984374 15.683594 5.984374 21.667969 0zm0 0" fill="#80c4ff" data-original="#bfe1ff" style="" class=""/><path d="m31.734375 418.476562 67.214844-67.214843c5.984375-5.984375 5.984375-15.6875 0-21.671875l-88.882813 88.886718c5.980469 5.980469 15.683594 5.980469 21.667969 0zm0 0" fill="#80c4ff" data-original="#bfe1ff" style="" class=""/></g></g></svg>
