<?xml version="1.0"?>
<svg xmlns="http://www.w3.org/2000/svg" xmlns:xlink="http://www.w3.org/1999/xlink" xmlns:svgjs="http://svgjs.com/svgjs" version="1.1" width="512" height="512" x="0" y="0" viewBox="0 0 512 512" style="enable-background:new 0 0 512 512" xml:space="preserve" class=""><g>
<path xmlns="http://www.w3.org/2000/svg" style="" d="M265.523,303.479l132.674,132.655c5.266,5.265,5.266,13.801,0.001,19.067l-32.822,32.822  c-5.265,5.264-13.8,5.265-19.065,0.001l-90.321-90.302l-52.935,52.935l-37.365,37.365c-5.265,5.265-13.801,5.265-19.066,0  L113.803,455.2c-5.265-5.265-5.265-13.801,0-19.066l89.252-89.252l43.403-43.403C251.722,298.215,260.258,298.214,265.523,303.479z" fill="#1976d2" data-original="#00d8de"/>
<path xmlns="http://www.w3.org/2000/svg" style="" d="M204.124,345.855l51.887,51.887l-19.832,19.833l-33.124,33.082l-37.365,37.365  c-5.265,5.265-13.801,5.265-19.066,0l-32.819-32.819c-5.266-5.266-5.265-13.804,0.002-19.068l70.483-70.447L204.124,345.855z" fill="#00a5ff" data-original="#00a5ff" class=""/>
<polygon xmlns="http://www.w3.org/2000/svg" style="" points="204.124,345.855 256.011,397.742 243.407,410.325 191.52,358.438 " fill="#0087ff" data-original="#0087ff"/>
<path xmlns="http://www.w3.org/2000/svg" style="" d="M265.523,165.171l132.674,132.655c5.266,5.265,5.266,13.801,0.001,19.067l-32.822,32.822  c-5.265,5.264-13.8,5.265-19.065,0.001l-90.321-90.302l-52.935,52.935l-37.365,37.365c-5.265,5.265-13.801,5.265-19.066,0  l-32.821-32.821c-5.265-5.265-5.265-13.801,0-19.066l89.252-89.252l43.403-43.403C251.722,159.907,260.258,159.906,265.523,165.171z  " fill="#00a5ff" data-original="#00a5ff" class=""/>
<path xmlns="http://www.w3.org/2000/svg" style="" d="M204.124,207.547l51.887,51.887l-19.832,19.833l-33.124,33.082l-37.365,37.365  c-5.265,5.265-13.801,5.265-19.066,0l-32.819-32.819c-5.266-5.266-5.265-13.804,0.002-19.068l70.483-70.447L204.124,207.547z" fill="#1976d2" data-original="#00d8de"/>
<polygon xmlns="http://www.w3.org/2000/svg" style="" points="204.124,207.547 256.011,259.434 243.407,272.017 191.52,220.13 " fill="#054ec1" data-original="#05c1c1" class=""/>
<path xmlns="http://www.w3.org/2000/svg" style="" d="M265.523,23.977l132.674,132.655c5.266,5.265,5.266,13.801,0.001,19.067l-32.822,32.821  c-5.265,5.265-13.8,5.265-19.065,0.001L255.99,118.22l-52.935,52.935L165.69,208.52c-5.265,5.265-13.801,5.265-19.066,0  l-32.821-32.821c-5.265-5.265-5.265-13.801,0-19.066l89.252-89.252l43.403-43.403C251.722,18.713,260.258,18.713,265.523,23.977z" fill="#1976d2" data-original="#00d8de"/>
<path xmlns="http://www.w3.org/2000/svg" style="" d="M204.124,66.354l51.887,51.887l-19.832,19.833l-33.124,33.082L165.69,208.52  c-5.265,5.265-13.801,5.265-19.066,0l-32.819-32.819c-5.266-5.266-5.265-13.804,0.002-19.068l70.483-70.447L204.124,66.354z" fill="#00a5ff" data-original="#00a5ff" class=""/>
<polygon xmlns="http://www.w3.org/2000/svg" style="" points="204.124,66.354 256.011,118.241 243.407,130.823 191.52,78.936 " fill="#0087ff" data-original="#0087ff"/>
<g xmlns="http://www.w3.org/2000/svg">
	<path style="" d="M494.011,488.583c-4.143,0-7.5,3.358-7.5,7.5v8.417c0,4.142,3.357,7.5,7.5,7.5s7.5-3.358,7.5-7.5   v-8.417C501.511,491.941,498.153,488.583,494.011,488.583z" fill="#054ec1" data-original="#05c1c1" class=""/>
	<path style="" d="M449.738,488.583c-4.143,0-7.5,3.358-7.5,7.5v8.417c0,4.142,3.357,7.5,7.5,7.5s7.5-3.358,7.5-7.5   v-8.417C457.238,491.941,453.881,488.583,449.738,488.583z" fill="#054ec1" data-original="#05c1c1" class=""/>
	<path style="" d="M405.466,488.583c-4.143,0-7.5,3.358-7.5,7.5v8.417c0,4.142,3.357,7.5,7.5,7.5s7.5-3.358,7.5-7.5   v-8.417C412.966,491.941,409.608,488.583,405.466,488.583z" fill="#054ec1" data-original="#05c1c1" class=""/>
</g>
<g xmlns="http://www.w3.org/2000/svg">
	<path style="" d="M114.034,15.917V7.5c0-4.142-3.357-7.5-7.5-7.5s-7.5,3.358-7.5,7.5v8.417c0,4.142,3.357,7.5,7.5,7.5   S114.034,20.059,114.034,15.917z" fill="#0087ff" data-original="#0087ff"/>
	<path style="" d="M62.262,0c-4.143,0-7.5,3.358-7.5,7.5v8.417c0,4.142,3.357,7.5,7.5,7.5s7.5-3.358,7.5-7.5V7.5   C69.762,3.358,66.404,0,62.262,0z" fill="#0087ff" data-original="#0087ff"/>
	<path style="" d="M17.989,0c-4.143,0-7.5,3.358-7.5,7.5v8.417c0,4.142,3.357,7.5,7.5,7.5s7.5-3.358,7.5-7.5V7.5   C25.489,3.358,22.132,0,17.989,0z" fill="#0087ff" data-original="#0087ff"/>
</g>
<g xmlns="http://www.w3.org/2000/svg">
</g>
<g xmlns="http://www.w3.org/2000/svg">
</g>
<g xmlns="http://www.w3.org/2000/svg">
</g>
<g xmlns="http://www.w3.org/2000/svg">
</g>
<g xmlns="http://www.w3.org/2000/svg">
</g>
<g xmlns="http://www.w3.org/2000/svg">
</g>
<g xmlns="http://www.w3.org/2000/svg">
</g>
<g xmlns="http://www.w3.org/2000/svg">
</g>
<g xmlns="http://www.w3.org/2000/svg">
</g>
<g xmlns="http://www.w3.org/2000/svg">
</g>
<g xmlns="http://www.w3.org/2000/svg">
</g>
<g xmlns="http://www.w3.org/2000/svg">
</g>
<g xmlns="http://www.w3.org/2000/svg">
</g>
<g xmlns="http://www.w3.org/2000/svg">
</g>
<g xmlns="http://www.w3.org/2000/svg">
</g>
</g></svg>
