<?xml version="1.0"?>
<svg xmlns="http://www.w3.org/2000/svg" xmlns:xlink="http://www.w3.org/1999/xlink" xmlns:svgjs="http://svgjs.com/svgjs" version="1.1" width="512" height="512" x="0" y="0" viewBox="0 0 512 512" style="enable-background:new 0 0 512 512" xml:space="preserve" class=""><g><g xmlns="http://www.w3.org/2000/svg"><path d="m223.866 0c-123.44 0-223.866 100.426-223.866 223.866 0 59.38 23.049 115.339 64.901 157.568 2.057 2.075 6.871 5.461 13.523 4.164 4.921-.959 9.037-4.313 10.971-8.938 22.75-54.427 75.533-89.595 134.471-89.595s111.721 35.168 134.471 89.595c1.934 4.625 6.05 7.979 10.971 8.938 6.653 1.297 11.467-2.089 13.523-4.164 41.853-42.229 64.901-98.188 64.901-157.568 0-123.44-100.425-223.866-223.866-223.866z" fill="#f3f9ff" data-original="#f3f9ff" style="" class=""/><path d="m223.866 287.066c58.938 0 111.721 35.168 134.471 89.595 1.934 4.625 6.05 7.979 10.971 8.938 6.653 1.297 11.467-2.089 13.523-4.164 41.853-42.229 64.901-98.188 64.901-157.568 0-123.441-100.425-223.867-223.866-223.867z" fill="#e1eeff" data-original="#e1eeff" style="" class=""/><ellipse cx="223.866" cy="176.733" fill="#90dde9" rx="80.334" ry="80.333" transform="matrix(.383 -.924 .924 .383 -25.083 315.926)" data-original="#b4ebff" style="" class=""/><path d="m386.017 365.09c-27.431-65.622-91.078-108.024-162.15-108.024s-134.721 42.403-162.151 108.024c-2.337 5.592-1.08 12.041 3.188 16.346 42.382 42.752 98.836 66.296 158.963 66.296s116.581-23.544 158.963-66.296c4.267-4.304 5.524-10.753 3.187-16.346z" fill="#52ddf3" data-original="#60c7ff" style="" class=""/><path d="m223.866 96.399c44.296 0 80.334 36.038 80.334 80.333s-36.038 80.333-80.334 80.333z" fill="#52ddf3" data-original="#60c7ff" style="" class=""/><path d="m223.866 447.732c60.127 0 116.581-23.544 158.963-66.296 4.268-4.304 5.524-10.753 3.188-16.346-27.431-65.622-91.078-108.024-162.15-108.024v190.666z" fill="#2cd3ef" data-original="#2585fd" style="" class=""/><ellipse cx="400.6" cy="400.6" fill="#83dd3f" rx="111.4" ry="111.4" transform="matrix(.383 -.924 .924 .383 -122.809 617.403)" data-original="#aaec78" style="" class=""/><path d="m400.6 289.2c61.427 0 111.4 49.974 111.4 111.4s-49.974 111.4-111.4 111.4z" fill="#72cf2c" data-original="#00d048" style="" class=""/><path d="m432.733 385.6h-17.133v-17.133c0-8.284-6.716-15-15-15s-15 6.716-15 15v17.133h-17.133c-8.284 0-15 6.716-15 15s6.716 15 15 15h17.133v17.133c0 8.284 6.716 15 15 15s15-6.716 15-15v-17.133h17.134c8.284 0 15-6.716 15-15s-6.716-15-15.001-15z" fill="#f3f9ff" data-original="#f3f9ff" style="" class=""/><path d="m400.6 447.733c8.284 0 15-6.716 15-15v-17.133h17.134c8.284 0 15-6.716 15-15s-6.716-15-15-15h-17.134v-17.133c0-8.284-6.716-15-15-15z" fill="#e1eeff" data-original="#e1eeff" style="" class=""/></g></g></svg>
