<svg height="512" viewBox="0 0 64 64" width="512" xmlns="http://www.w3.org/2000/svg"><g id="Login"><rect fill="#e6ecff" height="52" rx="1" width="28" x="22" y="6"/><path d="m63 29h-22.5859l2.2929-2.293a.9994.9994 0 0 0 0-1.414l-3-3a.9994.9994 0 0 0 -1.414 0l-9 9a.9994.9994 0 0 0 0 1.414l9 9a.9995.9995 0 0 0 1.414 0l3-3a.9994.9994 0 0 0 0-1.414l-2.2929-2.293h22.5859a1 1 0 0 0 1-1v-4a1 1 0 0 0 -1-1z" fill="#4294ff"/><path d="m23.5859.19a1.0025 1.0025 0 0 0 -.8994-.14l-22 7.2666a1 1 0 0 0 -.6865.95v47.4668a1 1 0 0 0 .6865.95l22 7.2666a1 1 0 0 0 1.3135-.95v-62a1.001 1.001 0 0 0 -.4141-.81z" fill="#4294ff"/><circle cx="17" cy="32" fill="#376cfb" r="3"/></g></svg>