<?xml version="1.0"?>
<svg xmlns="http://www.w3.org/2000/svg" xmlns:xlink="http://www.w3.org/1999/xlink" xmlns:svgjs="http://svgjs.com/svgjs" version="1.1" width="512" height="512" x="0" y="0" viewBox="0 0 497 497" style="enable-background:new 0 0 512 512" xml:space="preserve" class=""><g transform="matrix(1,-2.449293598294706e-16,-2.449293598294706e-16,-1,3.979039320256561e-13,497.00000000000034)"><g xmlns="http://www.w3.org/2000/svg"><path d="m452 53.5-30 45 30 45h30c8.284 0 15-6.716 15-15v-60c0-8.284-6.716-15-15-15z" fill="#0d6872" data-original="#3b88f5" style="" class=""/><path d="m0 68.5v60c0 8.284 6.716 15 15 15h437c8.284 0 15-6.716 15-15v-60c0-8.284-6.716-15-15-15h-437c-8.284 0-15 6.716-15 15z" fill="#5ec2c7" data-original="#28abfa" style="" class=""/><path d="m452 203.5-30 45 30 45h30c8.284 0 15-6.716 15-15v-60c0-8.284-6.716-15-15-15z" fill="#0d6872" data-original="#3b88f5" style="" class=""/><path d="m0 218.5v60c0 8.284 6.716 15 15 15h437c8.284 0 15-6.716 15-15v-60c0-8.284-6.716-15-15-15h-437c-8.284 0-15 6.716-15 15z" fill="#5ec2c7" data-original="#28abfa" style="" class=""/><path d="m452 353.5-30 45 30 45h30c8.284 0 15-6.716 15-15v-60c0-8.284-6.716-15-15-15z" fill="#0d6872" data-original="#3b88f5" style="" class=""/><path d="m0 368.5v60c0 8.284 6.716 15 15 15h437c8.284 0 15-6.716 15-15v-60c0-8.284-6.716-15-15-15h-437c-8.284 0-15 6.716-15 15z" fill="#5ec2c7" data-original="#28abfa" style="" class=""/></g></g></svg>
