<svg id="Layer_1" enable-background="new 0 0 512 512" height="512" viewBox="0 0 512 512" width="512" xmlns="http://www.w3.org/2000/svg"><g><path d="m400.6 0h-321.333c-43.708 0-79.267 35.559-79.267 79.267v321.333c0 43.708 35.559 79.267 79.267 79.267h321.333c43.708 0 79.267-35.559 79.267-79.267v-321.333c-.001-43.708-35.559-79.267-79.267-79.267z" fill="#00a6fe"/><path d="m400.6 0h-160.667v479.867h160.667c43.708 0 79.267-35.559 79.267-79.267v-321.333c-.001-43.708-35.559-79.267-79.267-79.267z" fill="#005ff5"/><path d="m368.467 128.533h-41.987l-18.325-18.325c-8.903-8.903-20.741-13.808-33.332-13.808h-69.778c-12.591 0-24.429 4.904-33.333 13.809l-18.324 18.324h-41.988c-25.989 0-47.133 21.145-47.133 47.134v160.666c0 26.03 21.05 47.134 47.133 47.134h257.067c26.036 0 47.133-21.053 47.133-47.134v-160.666c0-25.989-21.144-47.134-47.133-47.134z" fill="#e9f6ff"/><path d="m368.467 128.533h-41.987l-18.325-18.325c-8.903-8.903-20.741-13.808-33.332-13.808h-34.889v287.066h128.534c26.036 0 47.133-21.053 47.133-47.134v-160.665c-.001-25.989-21.145-47.134-47.134-47.134z" fill="#c5e7ff"/><circle cx="400.6" cy="400.6" fill="#ff78a0" r="111.4"/><path d="m400.6 289.2c61.426 0 111.4 49.974 111.4 111.4s-49.974 111.4-111.4 111.4z" fill="#ff0054"/><path d="m421.813 400.6 13.498-13.498c5.858-5.858 5.858-15.355 0-21.213-5.857-5.858-15.355-5.858-21.213 0l-13.498 13.498-13.498-13.498c-5.857-5.857-15.354-5.858-21.213 0-5.858 5.857-5.858 15.355 0 21.213l13.498 13.498-13.498 13.498c-5.858 5.858-5.858 15.355 0 21.213s15.355 5.857 21.213 0l13.498-13.498 13.498 13.498c5.857 5.858 15.355 5.858 21.213 0 5.858-5.857 5.858-15.355 0-21.213z" fill="#e9f6ff"/><path d="m400.6 421.813 13.498 13.498c5.857 5.858 15.355 5.858 21.213 0 5.858-5.857 5.858-15.355 0-21.213l-13.498-13.498 13.498-13.498c5.858-5.858 5.858-15.355 0-21.213-5.857-5.858-15.355-5.858-21.213 0l-13.498 13.498z" fill="#c5e7ff"/><ellipse cx="239.933" cy="247.967" fill="#003772" rx="71.233" ry="71.233" transform="matrix(.16 -.987 .987 .16 -43.265 445.082)"/><path d="m239.933 176.733c39.278 0 71.233 31.955 71.233 71.233s-31.955 71.234-71.233 71.234z" fill="#09213c"/></g></svg>