<?xml version="1.0"?>
<svg xmlns="http://www.w3.org/2000/svg" xmlns:xlink="http://www.w3.org/1999/xlink" xmlns:svgjs="http://svgjs.com/svgjs" version="1.1" width="512" height="512" x="0" y="0" viewBox="0 0 496 496" style="enable-background:new 0 0 512 512" xml:space="preserve" class=""><g>
<path xmlns="http://www.w3.org/2000/svg" style="" d="M496,248c0,136.8-111.2,248-248,248S0,384.8,0,248S111.2,0,248,0S496,111.2,496,248z" fill="#64b5b9" data-original="#f73974" class=""/>
<path xmlns="http://www.w3.org/2000/svg" style="" d="M248,0c136.8,0,248,111.2,248,248S384.8,496,248,496" fill="#59b6bf" data-original="#dd0772" class=""/>
<path xmlns="http://www.w3.org/2000/svg" style="" d="M72.8,72.8c96.8-96.8,253.6-96.8,350.4,0s96.8,253.6,0,350.4" fill="#71bac1" data-original="#ed266e" class=""/>
<g xmlns="http://www.w3.org/2000/svg">
	<path style="" d="M188,192c-12,0-20,9.6-20,20.8v116c0,12,8,21.6,20,21.6s20-9.6,20-21.6v-116   C208,201.6,200,192,188,192z" fill="#59b6bf" data-original="#dd0772" class=""/>
	<path style="" d="M308,192c-12,0-20,9.6-20,20.8v116c0,12,8,21.6,20,21.6s20-9.6,20-21.6v-116   C328,201.6,320,192,308,192z" fill="#59b6bf" data-original="#dd0772" class=""/>
</g>
<g xmlns="http://www.w3.org/2000/svg">
	<path style="" d="M188,168.8c-12,0-20,9.6-20,21.6v116c0,12,8,21.6,20,21.6s20-9.6,20-21.6V189.6   C208,178.4,200,168.8,188,168.8z" fill="#ffffff" data-original="#ffffff" class=""/>
	<path style="" d="M308,168.8c-12,0-20,9.6-20,21.6v116c0,12,8,21.6,20,21.6s20-9.6,20-21.6V189.6   C328,178.4,320,168.8,308,168.8z" fill="#ffffff" data-original="#ffffff" class=""/>
</g>
<g xmlns="http://www.w3.org/2000/svg">
</g>
<g xmlns="http://www.w3.org/2000/svg">
</g>
<g xmlns="http://www.w3.org/2000/svg">
</g>
<g xmlns="http://www.w3.org/2000/svg">
</g>
<g xmlns="http://www.w3.org/2000/svg">
</g>
<g xmlns="http://www.w3.org/2000/svg">
</g>
<g xmlns="http://www.w3.org/2000/svg">
</g>
<g xmlns="http://www.w3.org/2000/svg">
</g>
<g xmlns="http://www.w3.org/2000/svg">
</g>
<g xmlns="http://www.w3.org/2000/svg">
</g>
<g xmlns="http://www.w3.org/2000/svg">
</g>
<g xmlns="http://www.w3.org/2000/svg">
</g>
<g xmlns="http://www.w3.org/2000/svg">
</g>
<g xmlns="http://www.w3.org/2000/svg">
</g>
<g xmlns="http://www.w3.org/2000/svg">
</g>
</g></svg>
