<?xml version="1.0"?>
<svg xmlns="http://www.w3.org/2000/svg" xmlns:xlink="http://www.w3.org/1999/xlink" xmlns:svgjs="http://svgjs.com/svgjs" version="1.1" width="512" height="512" x="0" y="0" viewBox="0 0 64 64" style="enable-background:new 0 0 512 512" xml:space="preserve" class=""><g><g xmlns="http://www.w3.org/2000/svg" id="Pencil_Edita" data-name="Pencil Edita"><path d="m59 64h-54a5.0059 5.0059 0 0 1 -5-5v-54a5.0059 5.0059 0 0 1 5-5h34a1 1 0 0 1 0 2h-34a3.0033 3.0033 0 0 0 -3 3v54a3.0033 3.0033 0 0 0 3 3h54a3.0033 3.0033 0 0 0 3-3v-34a1 1 0 0 1 2 0v34a5.0059 5.0059 0 0 1 -5 5z" fill="#4294ff" data-original="#4294ff" style="" class=""/><path d="m61.2217 2.7783a9.5125 9.5125 0 0 0 -9.0862-2.4903 9.3192 9.3192 0 0 0 -4.357 2.5194l-37.9855 37.9856-3.773 16.0107a1 1 0 0 0 1.1768 1.1768l16.0102-3.7735 37.7784-37.7783a9.9332 9.9332 0 0 0 2.9956-6.3329 9.437 9.437 0 0 0 -2.7593-7.3175z" fill="#eceff1" data-original="#e6ecff" style="" class=""/><path d="m16 49a1 1 0 0 1 -.707-1.707l32.5-32.5a1 1 0 0 1 1.414 1.414l-32.5 32.5a.9967.9967 0 0 1 -.707.293z" fill="#376cfb" data-original="#376cfb" style="" class=""/><g fill="#4294ff"><path d="m6.293 57.707a.9992.9992 0 0 0 .9033.2735l16.0107-3.7735-13.414-13.414-3.773 16.0107a.9991.9991 0 0 0 .273.9033z" fill="#4294ff" data-original="#4294ff" style="" class=""/><path d="m46.879 4.515h6.242v18.97h-6.242z" transform="matrix(.707 -.707 .707 .707 4.745 39.456)" fill="#4294ff" data-original="#4294ff" style="" class=""/></g></g></g></svg>
