<?xml version="1.0" encoding="UTF-8"?>
<svg xmlns="http://www.w3.org/2000/svg" xmlns:xlink="http://www.w3.org/1999/xlink" xmlns:svgjs="http://svgjs.com/svgjs" version="1.1" width="512" height="512" x="0" y="0" viewBox="0 0 512 512" style="enable-background:new 0 0 512 512" xml:space="preserve" class="">
  <g>
    <g xmlns="http://www.w3.org/2000/svg">
      <g>
        <path d="m507.606 100.794-96.4-96.4c-2.812-2.814-6.628-4.394-10.606-4.394h-345.434c-30.419 0-55.166 24.748-55.166 55.167v401.666c0 30.419 24.747 55.167 55.166 55.167h401.667c30.419 0 55.167-24.748 55.167-55.167v-345.433c0-3.978-1.58-7.794-4.394-10.606z" fill="#1e88e5" data-original="#265c76" style="" class=""/>
        <path d="m507.606 100.794-96.4-96.4c-2.812-2.814-6.628-4.394-10.606-4.394h-144.6v512h200.833c30.419 0 55.167-24.748 55.167-55.167v-345.433c0-3.978-1.58-7.794-4.394-10.606z" fill="#1e88e5" data-original="#1d4659" style="" class=""/>
        <path d="m96.399 0v151.566c0 30.419 24.748 55.167 55.167 55.167h176.734c30.419 0 55.167-24.748 55.167-55.167v-151.566z" fill="#64b5f6" data-original="#8db9c4" style="" class=""/>
        <path d="m383.467 151.566v-151.566h-127.467v206.733h72.3c30.419 0 55.167-24.748 55.167-55.167z" fill="#2196f3" data-original="#678c97" style="" class=""/>
        <g>
          <path d="m304.2 142.467c-8.284 0-15-6.716-15-15v-48.2c0-8.284 6.716-15 15-15s15 6.716 15 15v48.2c0 8.284-6.716 15-15 15z" fill="#1e88e5" data-original="#1d4659" style="" class=""/>
        </g>
      </g>
      <path d="m360.433 273.134h-208.867c-30.419 0-55.167 24.747-55.167 55.166v183.7h319.2v-183.7c.001-30.419-24.747-55.166-55.166-55.166z" fill="#a5a5a5" data-original="#e7f0ef" style="" class=""/>
      <path d="m415.6 328.3c0-30.419-24.748-55.166-55.167-55.166h-104.433v238.866h159.6z" fill="#b3b3b3" data-original="#c5e1e6" style="" class=""/>
    </g>
  </g>
</svg>
